<?xml version="1.0" encoding="UTF-8" standalone="no"?>
<!-- Created with Inkscape (http://www.inkscape.org/) -->

<svg
   width="208.18384mm"
   height="47.8563mm"
   viewBox="0 0 208.18384 47.8563"
   version="1.1"
   id="svg1"
   xml:space="preserve"
   inkscape:version="1.3.2 (091e20e, 2023-11-25, custom)"
   sodipodi:docname="physiologi.svg"
   xmlns:inkscape="http://www.inkscape.org/namespaces/inkscape"
   xmlns:sodipodi="http://sodipodi.sourceforge.net/DTD/sodipodi-0.dtd"
   xmlns="http://www.w3.org/2000/svg"
   xmlns:svg="http://www.w3.org/2000/svg"><sodipodi:namedview
     id="namedview1"
     pagecolor="#ffffff"
     bordercolor="#000000"
     borderopacity="0.25"
     inkscape:showpageshadow="2"
     inkscape:pageopacity="0.0"
     inkscape:pagecheckerboard="0"
     inkscape:deskcolor="#d1d1d1"
     inkscape:document-units="mm"
     inkscape:zoom="0.4359103"
     inkscape:cx="583.83571"
     inkscape:cy="-165.1716"
     inkscape:window-width="1500"
     inkscape:window-height="930"
     inkscape:window-x="-6"
     inkscape:window-y="-6"
     inkscape:window-maximized="1"
     inkscape:current-layer="layer1" /><defs
     id="defs1" /><g
     inkscape:label="Layer 1"
     inkscape:groupmode="layer"
     id="layer1"
     transform="translate(-10.137199,-125.13232)"><path
       style="fill:#000000"
       d="m 79.154282,169.83895 c -0.572433,-0.20967 -1.250137,-0.57067 -1.506009,-0.80223 -0.442657,-0.4006 -0.437666,-0.46306 0.102909,-1.28771 l 0.568129,-0.86669 0.722468,0.53414 c 0.403498,0.29832 1.284828,0.58263 1.996213,0.64396 1.792701,0.15455 2.734195,-0.50015 3.743571,-2.60322 0.722953,-1.50629 0.765764,-1.73728 0.457012,-2.46577 -0.187366,-0.44208 -1.845289,-4.16546 -3.684273,-8.27417 -1.838984,-4.10871 -3.343607,-7.59129 -3.343607,-7.73906 0,-0.14777 0.506015,-0.26855 1.124479,-0.2684 l 1.124479,2.8e-4 3.158667,7.13776 c 1.737267,3.92576 3.199413,7.09701 3.249213,7.0472 0.0498,-0.0498 1.490542,-3.23214 3.201648,-7.07188 l 3.111101,-6.98135 1.114165,-0.0814 c 0.61279,-0.0447 1.114164,0.0178 1.114164,0.13896 0,0.24446 -8.093969,18.41522 -8.952258,20.0976 -1.391536,2.72764 -4.408399,3.90179 -7.302071,2.84193 z M 37.200279,152.53036 v -11.37709 l 4.431771,0.002 c 5.15648,0.002 7.338062,0.28861 9.253603,1.21434 3.313449,1.60129 4.758349,5.24178 3.61992,9.12054 -0.321626,1.09582 -0.746233,1.75123 -1.788041,2.76 -2.064396,1.99891 -3.12844,2.30306 -8.57194,2.4502 l -4.564063,0.12336 v 3.54186 3.54187 h -1.190625 -1.190625 z m 12.347179,1.16821 c 2.033262,-1.01613 2.838814,-2.37855 2.816379,-4.76333 -0.02001,-2.12699 -0.812501,-3.59775 -2.460714,-4.56677 -1.146311,-0.67393 -1.37381,-0.70513 -5.757531,-0.78966 l -4.564063,-0.088 v 5.40172 c 0,2.97094 0.0893,5.49442 0.198438,5.60772 0.10914,0.11331 2.004199,0.15283 4.211241,0.0878 3.784099,-0.11144 4.100771,-0.16214 5.55625,-0.88952 z m 10.142404,-1.82967 v -12.03854 h 1.190625 1.190625 v 4.7625 c 0,2.61937 0.0893,4.76044 0.198437,4.75792 0.109141,-0.003 0.496094,-0.31933 0.859896,-0.70403 1.185389,-1.25351 2.788341,-1.79947 5.291667,-1.80235 2.640699,-0.003 4.332933,0.66016 5.462145,2.14063 1.269986,1.66504 1.392946,2.44398 1.405408,8.90314 l 0.01161,6.01927 H 74.10965 72.919025 l -0.0058,-5.75469 c -0.0066,-6.53623 -0.210157,-7.43987 -1.91298,-8.49228 -1.889163,-1.16756 -4.947045,-0.98092 -6.777756,0.41369 -1.720694,1.3108 -2.000418,2.43689 -2.105324,8.47547 l -0.09308,5.35781 H 60.85697 59.689862 Z m 39.076066,11.41083 c -0.991132,-0.33773 -1.994514,-0.80651 -2.229739,-1.04174 -0.393851,-0.39385 -0.390336,-0.49702 0.04444,-1.30434 l 0.472117,-0.87667 1.571875,0.77909 c 1.21533,0.60238 2.044909,0.80648 3.657319,0.89982 1.14699,0.0664 2.49715,0.0435 3.00036,-0.0509 1.70343,-0.31957 2.71006,-1.94989 2.13279,-3.45423 -0.26799,-0.69836 -1.54264,-1.19738 -4.76571,-1.86574 -1.67264,-0.34685 -3.420121,-0.85197 -3.883293,-1.12247 -2.767416,-1.61626 -2.750585,-5.50725 0.03193,-7.38239 2.173453,-1.46469 6.799163,-1.49211 9.635813,-0.0571 l 0.98669,0.49914 -0.44421,0.93151 c -0.32026,0.67159 -0.55865,0.88108 -0.85439,0.75078 -3.66265,-1.6137 -7.36962,-1.52918 -8.577687,0.19558 -0.630298,0.89987 -0.547648,2.14893 0.187919,2.83996 0.389418,0.36583 1.494538,0.78711 2.976558,1.13467 4.45016,1.04364 5.15176,1.29406 6.12535,2.18629 0.85051,0.77943 0.96698,1.04591 1.06425,2.43492 0.092,1.31327 0.0105,1.70501 -0.51581,2.47944 -0.74509,1.09642 -2.04399,2.01791 -3.35943,2.3833 -1.7598,0.48883 -5.28029,0.31473 -7.257141,-0.35888 z m 15.428102,-7.98646 v -8.61417 l 1.12448,0.0814 1.12448,0.0814 0.0698,8.53282 0.0698,8.53281 h -1.19429 -1.19429 z m 12.96458,8.38181 c -2.37744,-0.77994 -4.35279,-2.50354 -5.34342,-4.66243 -0.8458,-1.84327 -0.86737,-5.52105 -0.0429,-7.30843 0.80922,-1.75423 2.29532,-3.27952 4.0209,-4.12692 1.30088,-0.63884 1.81059,-0.73549 3.87893,-0.73549 2.7974,0 4.16243,0.50466 6.03578,2.23146 1.7952,1.65475 2.42459,3.30627 2.42665,6.3675 0.001,2.228 -0.0804,2.66947 -0.72071,3.88605 -1.57996,3.00181 -3.83807,4.38431 -7.34105,4.49443 -1.23901,0.039 -2.55041,-0.0268 -2.91421,-0.14617 z m 5.17414,-2.38335 c 4.03408,-1.83233 4.78288,-8.20951 1.30094,-11.07961 -2.9893,-2.46404 -7.64033,-1.53882 -9.45474,1.88081 -0.82177,1.54879 -0.83037,4.87018 -0.0165,6.39055 0.70574,1.31846 1.79066,2.36328 2.99621,2.88547 1.29308,0.56009 3.85521,0.52186 5.17414,-0.0772 z M 114.2529,142.85806 c -1.11229,-0.77908 -0.62821,-2.56509 0.78771,-2.90627 0.5539,-0.13347 0.8658,-0.0206 1.38906,0.50266 0.818,0.818 0.84136,1.20943 0.1264,2.11835 -0.62065,0.78903 -1.4392,0.89041 -2.30317,0.28526 z"
       id="path1" /><path
       style="fill:#2fd398;fill-opacity:1"
       d="m 11.65184,146.91573 c -2.1570005,-1.06491 -1.9969225,-3.94353 0.395508,-7.11228 1.892587,-2.50671 1.883119,-2.46482 1.883119,-8.33159 0,-4.95203 0.03519,-5.33999 0.529166,-5.83397 0.675153,-0.67515 1.182917,-0.66917 1.874175,0.0221 0.53066,0.53066 0.547905,0.76547 0.461502,6.28386 -0.100527,6.42053 -0.0017,6.02921 -2.376016,9.41211 -0.705417,1.00508 -1.282577,2.12029 -1.282577,2.47824 0,0.5722 0.08788,0.63156 0.727604,0.49149 1.521886,-0.33324 8.771538,-0.47325 11.178645,-0.2159 1.501225,0.1605 2.613707,0.17226 2.762247,0.0292 0.333873,-0.32157 -0.326927,-1.66258 -1.816005,-3.68535 -0.658209,-0.89411 -1.318311,-2.06335 -1.466892,-2.5983 -0.148582,-0.53496 -0.270812,-3.38366 -0.271624,-6.33046 -0.0014,-5.00612 0.03326,-5.39255 0.527691,-5.88698 0.626068,-0.62607 1.038869,-0.66273 1.735368,-0.15413 0.473694,0.3459 0.523867,0.82377 0.645882,6.15156 0.07276,3.17709 0.243825,5.95512 0.380143,6.1734 0.136319,0.21828 0.695327,0.99435 1.24224,1.72459 2.217814,2.96124 2.665221,5.28835 1.308134,6.80405 -0.772713,0.86303 -0.776151,0.86392 -2.844269,0.73641 -3.159246,-0.19478 -11.118256,-0.16076 -13.050831,0.0558 -1.31807,0.14769 -1.912132,0.0977 -2.54321,-0.21382 z"
       id="path8" /><path
       id="path3"
       style="fill:#2fd398;fill-opacity:1"
       d="m 172.28354,140.71906 c -7.03718,0 -12.30312,4.98281 -12.30312,11.64167 0,5.41793 3.42163,9.78507 8.80153,11.23394 1.79892,0.48445 5.24736,0.50017 7.00577,0.032 3.52699,-0.93892 6.10815,-3.01909 7.67188,-6.18308 0.97622,-1.97526 0.99477,-2.06903 0.99477,-5.06894 0,-2.88675 -0.0469,-3.15525 -0.84284,-4.83537 -2.02682,-4.27849 -6.24822,-6.82025 -11.32799,-6.82025 z m 26.81128,0.0326 c -2.26197,0.0475 -4.50035,0.57 -6.27351,1.58439 -4.08135,2.33487 -6.40352,7.17603 -5.64307,11.76518 0.78582,4.74231 3.9024,8.19223 8.59069,9.5095 h 5.2e-4 c 1.92573,0.54077 6.40623,0.36409 8.58552,-0.339 0.9043,-0.29175 2.18422,-0.84723 2.84427,-1.23404 l 1.19993,-0.70331 v -4.59094 c 0,-3.94208 -0.0592,-4.61322 -0.41858,-4.75113 -0.59958,-0.23009 -3.62226,-0.19063 -4.00441,0.0522 -0.21598,0.13724 -0.34658,1.24445 -0.39687,3.3662 l -0.0749,3.16156 -0.79375,0.39998 c -1.26661,0.63819 -5.01135,0.52239 -6.38565,-0.19741 -2.63288,-1.37896 -3.66851,-3.18971 -3.66851,-6.41407 0,-1.67686 0.12798,-2.50606 0.50229,-3.25975 1.95776,-3.94206 7.41657,-5.05857 11.22877,-2.29702 1.29685,0.93944 1.45382,0.89462 3.21273,-0.91106 1.37454,-1.41108 1.33469,-1.61068 -0.60462,-3.00653 -2.04548,-1.47228 -4.99255,-2.19586 -7.90081,-2.13475 z m -54.01995,0.23202 c -1.34801,0 -2.30852,0.12209 -2.50424,0.31781 -0.2364,0.23642 -0.3173,3.0349 -0.3173,10.95851 0,5.85258 0.0732,10.83113 0.16227,11.0634 0.14432,0.37606 1.04885,0.41422 8.26823,0.35192 l 8.10596,-0.0698 v -2.11667 -2.11667 l -5.4901,-0.0713 -5.49011,-0.0718 v -8.61084 c 0,-5.42979 -0.10118,-8.79974 -0.27388,-9.12244 -0.23688,-0.44258 -0.56967,-0.51212 -2.46083,-0.51212 z m 70.44841,0.0346 c -0.80164,-0.005 -1.51635,0.028 -1.7632,0.0899 l -0.59841,0.15038 v 11.06341 c 0,6.08484 0.0834,11.14684 0.18551,11.24892 0.10209,0.10225 1.26295,0.15148 2.57969,0.11008 l 2.39417,-0.0754 v -11.24479 -11.2448 l -1.98127,-0.0791 c -0.27243,-0.0109 -0.54928,-0.0168 -0.81649,-0.0186 z m -42.90488,4.23953 c 1.74214,0.0456 3.31608,0.74964 4.61109,2.08514 3.33072,3.43492 2.43254,9.28943 -1.75286,11.4267 -1.39683,0.71329 -4.12345,0.87028 -5.60483,0.32297 -1.53143,-0.56579 -3.10544,-2.00016 -3.82302,-3.4835 -0.89773,-1.85579 -0.85538,-4.72923 0.0971,-6.59495 0.85747,-1.67942 2.28593,-2.89531 4.00286,-3.40754 0.85112,-0.25393 1.67774,-0.36954 2.46961,-0.34882 z" /><path
       style="fill:#8f9193;fill-opacity:1"
       d="m 14.507366,172.65903 c -0.173386,-0.20891 -0.312965,-2.48516 -0.363126,-5.92184 l -0.08148,-5.58248 -1.058333,-1.48895 c -2.571249,-3.61746 -3.2225392,-5.54484 -2.36451,-6.99737 0.763377,-1.29229 1.413,-1.44292 4.671364,-1.0831 2.757933,0.30456 9.169195,0.21436 12.257249,-0.17244 1.182087,-0.14807 1.428114,-0.0888 2.148703,0.51753 0.447571,0.3766 0.884285,1.03733 0.970475,1.46828 0.238364,1.19182 -0.49286,3.23241 -1.78943,4.99368 -2.040956,2.77244 -2.003226,2.61437 -2.003226,8.3926 0,3.07156 -0.111794,5.3988 -0.273893,5.70168 -0.306157,0.57206 -1.303786,0.68035 -1.789857,0.19428 -0.48614,-0.48614 -0.440362,-11.3117 0.05283,-12.49206 0.203679,-0.48748 1.037116,-1.85994 1.852083,-3.04992 0.814967,-1.18999 1.481758,-2.3649 1.481758,-2.61092 0,-0.40977 -0.645639,-0.44731 -7.69276,-0.44731 h -7.69276 l 0.145257,0.72628 c 0.07989,0.39946 0.785928,1.64962 1.56897,2.77813 0.783042,1.12851 1.560043,2.45656 1.72667,2.95122 0.388737,1.15403 0.413249,11.23245 0.02906,11.9503 -0.310816,0.58077 -1.371582,0.68265 -1.795042,0.17241 z"
       id="path2" /></g></svg>
